<?xml version="1.0" encoding="utf-8"?>
<!-- Generator: Adobe Illustrator 24.2.3, SVG Export Plug-In . SVG Version: 6.00 Build 0)  -->
<svg version="1.1" id="Layer_1" xmlns="http://www.w3.org/2000/svg" xmlns:xlink="http://www.w3.org/1999/xlink" x="0px" y="0px"
	 viewBox="0 0 500 104" style="enable-background:new 0 0 500 104;" xml:space="preserve">
<style type="text/css">
	.st0{fill:url(#SVGID_1_);}
	.st1{fill:url(#SVGID_2_);}
	.st2{fill:url(#SVGID_3_);}
	.st3{fill:url(#SVGID_4_);}
	.st4{fill:url(#SVGID_5_);}
	.st5{fill:url(#SVGID_6_);}
	.st6{fill:url(#SVGID_7_);}
	.st7{fill:url(#SVGID_8_);}
	.st8{fill:url(#SVGID_9_);}
	.st9{fill:none;stroke:#000000;stroke-width:5;}
</style>
<g>
	<g>
		<path d="M54.3,34.9h-6.6v-6.6H9.5v51.4h38.1V73h6.6v-6.6h6.6V41.5h-6.6V34.9z M36,61.4V68h-8.2V39.9H36v6.6h6.6v14.9H36z"/>
		<polygon points="62.5,79.7 113.9,79.7 113.9,68 80.8,68 80.8,59.8 107.3,59.8 107.3,48.2 80.8,48.2 80.8,39.9 113.9,39.9 
			113.9,28.3 62.5,28.3 		"/>
		<polygon points="115.5,79.7 133.8,79.7 133.8,59.8 160.3,59.8 160.3,48.2 133.8,48.2 133.8,39.9 166.9,39.9 166.9,28.3 
			115.5,28.3 		"/>
		<polygon points="175.1,39.9 188.4,39.9 188.4,68 175.1,68 175.1,79.7 219.9,79.7 219.9,68 206.6,68 206.6,39.9 219.9,39.9 
			219.9,28.3 175.1,28.3 		"/>
		<polygon points="254.6,48.2 248,48.2 248,54.8 246.4,54.8 246.4,48.2 239.8,48.2 239.8,28.3 221.5,28.3 221.5,59.8 228.1,59.8 
			228.1,66.4 234.8,66.4 234.8,73 241.4,73 241.4,79.7 253,79.7 253,73 259.6,73 259.6,66.4 266.2,66.4 266.2,59.8 272.9,59.8 
			272.9,28.3 254.6,28.3 		"/>
		<polygon points="281.1,39.9 294.4,39.9 294.4,68 281.1,68 281.1,79.7 325.9,79.7 325.9,68 312.6,68 312.6,39.9 325.9,39.9 
			325.9,28.3 281.1,28.3 		"/>
		<polygon points="352.4,28.3 334.1,28.3 334.1,79.7 378.9,79.7 378.9,68 352.4,68 		"/>
		<polygon points="405.4,28.3 387.1,28.3 387.1,79.7 431.9,79.7 431.9,68 405.4,68 		"/>
		<polygon points="484.9,39.9 484.9,28.3 433.5,28.3 433.5,79.7 484.9,79.7 484.9,68 451.8,68 451.8,59.8 478.2,59.8 478.2,48.2 
			451.8,48.2 451.8,39.9 		"/>
	</g>
	<g>
		<linearGradient id="SVGID_1_" gradientUnits="userSpaceOnUse" x1="247.1877" y1="79.6621" x2="247.1877" y2="28.2871">
			<stop  offset="1.260747e-03" style="stop-color:#C54B30"/>
			<stop  offset="0.1746" style="stop-color:#D45624"/>
			<stop  offset="0.1966" style="stop-color:#F76E08"/>
			<stop  offset="0.2483" style="stop-color:#F77702"/>
			<stop  offset="0.2954" style="stop-color:#CD512A"/>
			<stop  offset="0.4678" style="stop-color:#D85921"/>
			<stop  offset="0.5251" style="stop-color:#FFAC33"/>
			<stop  offset="0.5935" style="stop-color:#FFA83A"/>
			<stop  offset="0.6433" style="stop-color:#E36017"/>
			<stop  offset="1" style="stop-color:#FFA82E"/>
		</linearGradient>
		<path class="st0" d="M54.3,34.9h-6.6v-6.6H9.5v51.4h38.1V73h6.6v-6.6h6.6V41.5h-6.6V34.9z M36,61.4V68h-8.2V39.9H36v6.6h6.6v14.9
			H36z"/>
		<linearGradient id="SVGID_2_" gradientUnits="userSpaceOnUse" x1="247.1877" y1="79.6621" x2="247.1877" y2="28.2871">
			<stop  offset="1.260747e-03" style="stop-color:#C54B30"/>
			<stop  offset="0.1746" style="stop-color:#D45624"/>
			<stop  offset="0.1966" style="stop-color:#F76E08"/>
			<stop  offset="0.2483" style="stop-color:#F77702"/>
			<stop  offset="0.2954" style="stop-color:#CD512A"/>
			<stop  offset="0.4678" style="stop-color:#D85921"/>
			<stop  offset="0.5251" style="stop-color:#FFAC33"/>
			<stop  offset="0.5935" style="stop-color:#FFA83A"/>
			<stop  offset="0.6433" style="stop-color:#E36017"/>
			<stop  offset="1" style="stop-color:#FFA82E"/>
		</linearGradient>
		<polygon class="st1" points="62.5,79.7 113.9,79.7 113.9,68 80.8,68 80.8,59.8 107.3,59.8 107.3,48.2 80.8,48.2 80.8,39.9 
			113.9,39.9 113.9,28.3 62.5,28.3 		"/>
		<linearGradient id="SVGID_3_" gradientUnits="userSpaceOnUse" x1="247.1877" y1="79.6621" x2="247.1877" y2="28.2871">
			<stop  offset="1.260747e-03" style="stop-color:#C54B30"/>
			<stop  offset="0.1746" style="stop-color:#D45624"/>
			<stop  offset="0.1966" style="stop-color:#F76E08"/>
			<stop  offset="0.2483" style="stop-color:#F77702"/>
			<stop  offset="0.2954" style="stop-color:#CD512A"/>
			<stop  offset="0.4678" style="stop-color:#D85921"/>
			<stop  offset="0.5251" style="stop-color:#FFAC33"/>
			<stop  offset="0.5935" style="stop-color:#FFA83A"/>
			<stop  offset="0.6433" style="stop-color:#E36017"/>
			<stop  offset="1" style="stop-color:#FFA82E"/>
		</linearGradient>
		<polygon class="st2" points="115.5,79.7 133.8,79.7 133.8,59.8 160.3,59.8 160.3,48.2 133.8,48.2 133.8,39.9 166.9,39.9 
			166.9,28.3 115.5,28.3 		"/>
		<linearGradient id="SVGID_4_" gradientUnits="userSpaceOnUse" x1="247.1877" y1="79.6621" x2="247.1877" y2="28.2871">
			<stop  offset="1.260747e-03" style="stop-color:#C54B30"/>
			<stop  offset="0.1746" style="stop-color:#D45624"/>
			<stop  offset="0.1966" style="stop-color:#F76E08"/>
			<stop  offset="0.2483" style="stop-color:#F77702"/>
			<stop  offset="0.2954" style="stop-color:#CD512A"/>
			<stop  offset="0.4678" style="stop-color:#D85921"/>
			<stop  offset="0.5251" style="stop-color:#FFAC33"/>
			<stop  offset="0.5935" style="stop-color:#FFA83A"/>
			<stop  offset="0.6433" style="stop-color:#E36017"/>
			<stop  offset="1" style="stop-color:#FFA82E"/>
		</linearGradient>
		<polygon class="st3" points="175.1,39.9 188.4,39.9 188.4,68 175.1,68 175.1,79.7 219.9,79.7 219.9,68 206.6,68 206.6,39.9 
			219.9,39.9 219.9,28.3 175.1,28.3 		"/>
		<linearGradient id="SVGID_5_" gradientUnits="userSpaceOnUse" x1="247.1877" y1="79.6621" x2="247.1877" y2="28.2871">
			<stop  offset="1.260747e-03" style="stop-color:#C54B30"/>
			<stop  offset="0.1746" style="stop-color:#D45624"/>
			<stop  offset="0.1966" style="stop-color:#F76E08"/>
			<stop  offset="0.2483" style="stop-color:#F77702"/>
			<stop  offset="0.2954" style="stop-color:#CD512A"/>
			<stop  offset="0.4678" style="stop-color:#D85921"/>
			<stop  offset="0.5251" style="stop-color:#FFAC33"/>
			<stop  offset="0.5935" style="stop-color:#FFA83A"/>
			<stop  offset="0.6433" style="stop-color:#E36017"/>
			<stop  offset="1" style="stop-color:#FFA82E"/>
		</linearGradient>
		<polygon class="st4" points="254.6,48.2 248,48.2 248,54.8 246.4,54.8 246.4,48.2 239.8,48.2 239.8,28.3 221.5,28.3 221.5,59.8 
			228.1,59.8 228.1,66.4 234.8,66.4 234.8,73 241.4,73 241.4,79.7 253,79.7 253,73 259.6,73 259.6,66.4 266.2,66.4 266.2,59.8 
			272.9,59.8 272.9,28.3 254.6,28.3 		"/>
		<linearGradient id="SVGID_6_" gradientUnits="userSpaceOnUse" x1="247.1877" y1="79.6621" x2="247.1877" y2="28.2871">
			<stop  offset="1.260747e-03" style="stop-color:#C54B30"/>
			<stop  offset="0.1746" style="stop-color:#D45624"/>
			<stop  offset="0.1966" style="stop-color:#F76E08"/>
			<stop  offset="0.2483" style="stop-color:#F77702"/>
			<stop  offset="0.2954" style="stop-color:#CD512A"/>
			<stop  offset="0.4678" style="stop-color:#D85921"/>
			<stop  offset="0.5251" style="stop-color:#FFAC33"/>
			<stop  offset="0.5935" style="stop-color:#FFA83A"/>
			<stop  offset="0.6433" style="stop-color:#E36017"/>
			<stop  offset="1" style="stop-color:#FFA82E"/>
		</linearGradient>
		<polygon class="st5" points="281.1,39.9 294.4,39.9 294.4,68 281.1,68 281.1,79.7 325.9,79.7 325.9,68 312.6,68 312.6,39.9 
			325.9,39.9 325.9,28.3 281.1,28.3 		"/>
		<linearGradient id="SVGID_7_" gradientUnits="userSpaceOnUse" x1="247.1877" y1="79.6621" x2="247.1877" y2="28.2871">
			<stop  offset="1.260747e-03" style="stop-color:#C54B30"/>
			<stop  offset="0.1746" style="stop-color:#D45624"/>
			<stop  offset="0.1966" style="stop-color:#F76E08"/>
			<stop  offset="0.2483" style="stop-color:#F77702"/>
			<stop  offset="0.2954" style="stop-color:#CD512A"/>
			<stop  offset="0.4678" style="stop-color:#D85921"/>
			<stop  offset="0.5251" style="stop-color:#FFAC33"/>
			<stop  offset="0.5935" style="stop-color:#FFA83A"/>
			<stop  offset="0.6433" style="stop-color:#E36017"/>
			<stop  offset="1" style="stop-color:#FFA82E"/>
		</linearGradient>
		<polygon class="st6" points="352.4,28.3 334.1,28.3 334.1,79.7 378.9,79.7 378.9,68 352.4,68 		"/>
		<linearGradient id="SVGID_8_" gradientUnits="userSpaceOnUse" x1="247.1877" y1="79.6621" x2="247.1877" y2="28.2871">
			<stop  offset="1.260747e-03" style="stop-color:#C54B30"/>
			<stop  offset="0.1746" style="stop-color:#D45624"/>
			<stop  offset="0.1966" style="stop-color:#F76E08"/>
			<stop  offset="0.2483" style="stop-color:#F77702"/>
			<stop  offset="0.2954" style="stop-color:#CD512A"/>
			<stop  offset="0.4678" style="stop-color:#D85921"/>
			<stop  offset="0.5251" style="stop-color:#FFAC33"/>
			<stop  offset="0.5935" style="stop-color:#FFA83A"/>
			<stop  offset="0.6433" style="stop-color:#E36017"/>
			<stop  offset="1" style="stop-color:#FFA82E"/>
		</linearGradient>
		<polygon class="st7" points="405.4,28.3 387.1,28.3 387.1,79.7 431.9,79.7 431.9,68 405.4,68 		"/>
		<linearGradient id="SVGID_9_" gradientUnits="userSpaceOnUse" x1="247.1877" y1="79.6621" x2="247.1877" y2="28.2871">
			<stop  offset="1.260747e-03" style="stop-color:#C54B30"/>
			<stop  offset="0.1746" style="stop-color:#D45624"/>
			<stop  offset="0.1966" style="stop-color:#F76E08"/>
			<stop  offset="0.2483" style="stop-color:#F77702"/>
			<stop  offset="0.2954" style="stop-color:#CD512A"/>
			<stop  offset="0.4678" style="stop-color:#D85921"/>
			<stop  offset="0.5251" style="stop-color:#FFAC33"/>
			<stop  offset="0.5935" style="stop-color:#FFA83A"/>
			<stop  offset="0.6433" style="stop-color:#E36017"/>
			<stop  offset="1" style="stop-color:#FFA82E"/>
		</linearGradient>
		<polygon class="st8" points="484.9,39.9 484.9,28.3 433.5,28.3 433.5,79.7 484.9,79.7 484.9,68 451.8,68 451.8,59.8 478.2,59.8 
			478.2,48.2 451.8,48.2 451.8,39.9 		"/>
	</g>
	<g>
		<path class="st9" d="M54.3,34.9h-6.6v-6.6H9.5v51.4h38.1V73h6.6v-6.6h6.6V41.5h-6.6V34.9z M36,61.4V68h-8.2V39.9H36v6.6h6.6v14.9
			H36z"/>
		<polygon class="st9" points="62.5,79.7 113.9,79.7 113.9,68 80.8,68 80.8,59.8 107.3,59.8 107.3,48.2 80.8,48.2 80.8,39.9 
			113.9,39.9 113.9,28.3 62.5,28.3 		"/>
		<polygon class="st9" points="115.5,79.7 133.8,79.7 133.8,59.8 160.3,59.8 160.3,48.2 133.8,48.2 133.8,39.9 166.9,39.9 
			166.9,28.3 115.5,28.3 		"/>
		<polygon class="st9" points="175.1,39.9 188.4,39.9 188.4,68 175.1,68 175.1,79.7 219.9,79.7 219.9,68 206.6,68 206.6,39.9 
			219.9,39.9 219.9,28.3 175.1,28.3 		"/>
		<polygon class="st9" points="254.6,48.2 248,48.2 248,54.8 246.4,54.8 246.4,48.2 239.8,48.2 239.8,28.3 221.5,28.3 221.5,59.8 
			228.1,59.8 228.1,66.4 234.8,66.4 234.8,73 241.4,73 241.4,79.7 253,79.7 253,73 259.6,73 259.6,66.4 266.2,66.4 266.2,59.8 
			272.9,59.8 272.9,28.3 254.6,28.3 		"/>
		<polygon class="st9" points="281.1,39.9 294.4,39.9 294.4,68 281.1,68 281.1,79.7 325.9,79.7 325.9,68 312.6,68 312.6,39.9 
			325.9,39.9 325.9,28.3 281.1,28.3 		"/>
		<polygon class="st9" points="352.4,28.3 334.1,28.3 334.1,79.7 378.9,79.7 378.9,68 352.4,68 		"/>
		<polygon class="st9" points="405.4,28.3 387.1,28.3 387.1,79.7 431.9,79.7 431.9,68 405.4,68 		"/>
		<polygon class="st9" points="484.9,39.9 484.9,28.3 433.5,28.3 433.5,79.7 484.9,79.7 484.9,68 451.8,68 451.8,59.8 478.2,59.8 
			478.2,48.2 451.8,48.2 451.8,39.9 		"/>
	</g>
</g>
</svg>
