<?xml version="1.0" encoding="utf-8"?>
<!-- Generator: Adobe Illustrator 25.2.0, SVG Export Plug-In . SVG Version: 6.00 Build 0)  -->
<svg version="1.1" id="Layer_1" xmlns="http://www.w3.org/2000/svg" xmlns:xlink="http://www.w3.org/1999/xlink" x="0px" y="0px"
	 viewBox="0 0 32 32" style="enable-background:new 0 0 32 32;" xml:space="preserve">
<path d="M15.6,15.2c0.7,1.2-0.9,1.6-1.6,1.7c-1.1,0.1-1.3-0.6-1.1-1.3c0.1-0.3,0.2-0.6,0.4-0.7c0.2-0.2,0.4-0.3,0.8-0.3
	s0.6,0,0.8,0.1C15.2,14.7,15.4,14.9,15.6,15.2L15.6,15.2z"/>
<path d="M19.8,13.1c-0.8,6,9.7,4.8,9.5,9.5c1-1.3,1.4-5.1-1.6-7C25,14,21.4,14.8,19.8,13.1z"/>
<path d="M25.9,10.7c-0.1-0.1-0.1-0.1-0.2-0.2C25.6,10.6,25.7,10.7,25.9,10.7z"/>
<path d="M28.3,15.2L28.3,15.2c-0.1-0.2-0.2-0.3-0.3-0.6c-0.3-0.4-0.9-0.8-1.4-1c-0.3-0.1-0.8-0.1-1.2-0.2c-0.4,0-0.8,0-1.2-0.1
	c-0.9,0-1.7-0.1-2.5-0.3c-0.2-0.1-0.4-0.1-0.7-0.2c-0.1,0-0.2-0.1-0.3-0.1c-0.1,0-0.2-0.1-0.3-0.1c-0.4-0.2-0.8-0.4-1.1-0.8
	c-0.7-0.6-1.1-1.3-1.7-1.9c-0.4-0.7-1-1.3-1.6-1.9S14.7,6.9,14,6.5c-0.8-0.3-1.6-0.6-2.3-0.7c0.9-0.1,1.7,0,2.4,0.3
	c0.8,0.3,1.6,0.8,2.1,1.3c0.4,0.3,0.8,0.8,1.1,1.2c2.7-0.6,4.8-0.1,6.4,0.9l0,0c0.6,0.3,1,0.7,1.4,1c0.1,0.1,0.1,0.1,0.2,0.2
	c0.3,0.3,0.7,0.7,1,1l0,0C27.7,13.1,28.3,14.4,28.3,15.2z"/>
<path d="M28.3,15.2L28.3,15.2L28.3,15.2z"/>
<path d="M12,6.5c0.7,0.1,1.3,0.3,1.8,0.9c0.4,0.6,0.6,1.2,0.8,1.8c0.1,0.4,0.2,1,0.3,1.4c0.1,0.2,0.2,0.4,0.3,0.7
	c0.1,0.2,0.2,0.3,0.3,0.6V12v0.1c-0.2,0.2-0.9,0-1.1-0.1c-0.4-0.2-0.8-0.4-1.1-0.9c-1-1.1-1.4-2.7-1.4-4C12,6.9,12,6.8,12,6.5z"/>
<path d="M23.3,18.6c-1.4,4.1,5.1,6.8,2.7,11c2.5-1,3.8-4.2,2.7-6.8C27.7,20.6,25,19.8,23.3,18.6z"/>
<path d="M14.6,23.9c0.4-0.3,0.8-0.6,1.3-0.8c0.4-0.2,1-0.3,1.4-0.4c1-0.2,2-0.2,2.8-0.6c0.4-0.1,0.8-0.3,1.1-0.7
	c0.3-0.3,0.6-0.7,0.7-1c0.1-0.4,0.2-0.9,0.2-1.3c0-0.4-0.1-1-0.3-1.4c0.3,0.3,0.7,0.9,0.8,1.3c0.1,0.6,0.1,1,0,1.6
	c-0.1,0.6-0.4,1-0.8,1.4c-0.3,0.3-0.9,0.7-1.3,0.9c-0.4,0.2-1,0.3-1.6,0.3s-1,0-1.4,0.1C16.4,23.5,15.4,23.6,14.6,23.9L14.6,23.9z"
	/>
<path d="M23.9,31.1c-0.1,0.1-0.3,0.2-0.4,0.3c-0.1,0.1-0.3,0.2-0.6,0.3C22.5,32,22.1,32,21.6,32c-1.1,0-1.9-0.9-2.3-1.8
	c-0.3-0.7-0.6-1.3-0.9-1.9c-0.6-0.9-1.4-1.6-2.4-1.4c-0.4,0-0.9,0.2-1.1,0.7c-0.7,1,0.2,2.3,1.4,2.2c0.1,0,0.2,0,0.3-0.1
	c0.1,0,0.2-0.1,0.2-0.1c0.1-0.1,0.3-0.3,0.3-0.6c0.1-0.2,0.1-0.4,0-0.7c0-0.2-0.2-0.4-0.3-0.6c0.2,0.1,0.4,0.3,0.4,0.6
	c0.1,0.2,0.1,0.4,0.1,0.8c0,0.2-0.1,0.6-0.3,0.7C17,29.9,16.9,30,16.8,30c-0.1,0.1-0.2,0.1-0.3,0.2c-0.2,0.1-0.6,0.1-0.8,0.1
	c-0.3,0-0.8-0.2-1-0.4c-0.3-0.3-0.7-0.7-1-1c-0.3-0.4-0.8-0.7-1.3-1c-0.3-0.1-0.7-0.2-1-0.3c-0.2,0-0.3-0.1-0.6-0.1
	c-0.1,0-0.4-0.1-0.6,0c0.6-0.6,1.2-1,1.8-1.3c0.7-0.4,1.4-0.7,2.1-0.9c0.8-0.2,1.6-0.3,2.4-0.2c0.4,0,0.8,0.1,1.2,0.3
	c0.4,0.1,0.8,0.4,1.1,0.7c0.3,0.3,0.6,0.7,0.8,1.1c0.1,0.3,0.3,0.8,0.3,1.2c0.2,1.2,0.1,3.1,1.8,3.3c0.1,0,0.1,0,0.2,0h0.2
	c0.2,0,0.3,0,0.6-0.1C23.2,31.3,23.5,31.2,23.9,31.1L23.9,31.1z"/>
<path d="M14.7,29.8L14.7,29.8L14.7,29.8z"/>
<path d="M13.2,12.6c-0.1,0.2-0.1,0.4-0.3,0.7c-0.2,0.3-0.6,0.6-1,0.8c-0.3,0.1-0.7,0.2-1.1,0.3c-0.1,0-0.2,0-0.2,0
	c-0.2,0-0.4,0.1-0.7,0.2c-0.2,0.1-0.2,0.3-0.3,0.6c0,0.1,0,0.2-0.1,0.3c0,0.3,0,0.7-0.1,1c-0.1,0.7-0.2,1.3-0.6,1.9
	c-0.3,0.8-0.8,1.4-0.7,2.3c0.1,0.7,0.4,1.1,0.9,1.4c0.8,0.8,2.3,1.1,2,2.9c-0.2,1.1-2,2.2-4.5,2.7c0.2,0-0.3-1-0.3-1.1
	c-0.2-0.4-0.6-0.9-0.8-1.3c-0.4-0.9-0.7-2-0.4-3c0.2-1,1-1.9,1.6-2.7c0.8-1,1.6-2.2,1.8-3.4c0-0.3,0.1-0.7,0.1-1
	c0.1-0.4,0.2-0.8,0.3-1.2c0.1-0.2,0.3-0.4,0.6-0.7c0.1-0.1,0.2-0.2,0.2-0.3s0-0.3-0.1-0.4L5.1,5.4l5.9,7.2c0.1,0.1,0.1,0.1,0.2,0.2
	c0.1,0,0.2,0.1,0.3,0.1s0.2,0,0.3-0.1c0.1,0,0.2-0.1,0.2-0.2c0.1-0.1,0.1-0.2,0.1-0.3s0-0.2-0.1-0.3c-0.3-0.4-0.8-1-1.2-1.4L9.5,8.7
	L6.6,5.1L2.6,0L7,4.8l3.1,3.4l1.6,1.8c0.6,0.6,1,1.1,1.6,1.8l0.1,0.1V12C13.3,12.2,13.3,12.4,13.2,12.6z"/>
<path d="M14.6,29.7c-0.3-0.2-0.6-0.4-0.8-0.8C14.1,29.2,14.3,29.5,14.6,29.7L14.6,29.7z"/>
</svg>
